<?xml version="1.0" encoding="utf-8"?>
<!-- Generator: Adobe Illustrator 27.8.1, SVG Export Plug-In . SVG Version: 6.00 Build 0)  -->
<svg version="1.1" id="레이어_1" xmlns="http://www.w3.org/2000/svg" xmlns:xlink="http://www.w3.org/1999/xlink" x="0px"
	 y="0px" viewBox="0 0 33 42" style="enable-background:new 0 0 33 42;" xml:space="preserve">
<style type="text/css">
	.st0{display:none;}
	.st1{display:inline;fill:#97CDEC;}
	.st2{display:inline;fill:none;stroke:#FFFFFF;stroke-width:2;}
	.st3{fill:none;stroke:#A06868;}
</style>
<g class="st0">
	<path class="st1" d="M24,29.6c-2,4-9,3-14,0c-5-3-3-21,0-23.5c1.6-1.4,2.6-1.2,3.6-0.9c1.5,0.6,2.9,2.2,2.9,3.9V11
		c0,2.2,2.3,3.6,4.5,3.5c1.2,0,2.3,0.2,3,1.1C26,18.1,26,25.6,24,29.6z"/>
	<path class="st2" d="M9.5,30.5c2.6,1.6,5.8,2.6,8.6,2.8c2.8,0.1,5.6-0.6,6.8-3.2c1.1-2.2,1.6-5.2,1.6-8c0-1.4-0.1-2.8-0.4-4
		c-0.3-1.2-0.7-2.3-1.3-3.1c-1-1.2-2.5-1.5-3.8-1.5c-0.9,0-1.8-0.3-2.5-0.7c-0.7-0.5-1-1.1-1-1.8V9.1c0-2.1-1.6-4.1-3.5-4.8
		c-0.6-0.2-1.3-0.4-2.1-0.3c-0.8,0.1-1.6,0.6-2.5,1.3c-0.6,0.5-1,1.2-1.3,2c-0.4,0.8-0.7,1.8-1,2.9C6.6,12.3,6.2,15,6,17.6
		c-0.1,2.6,0,5.4,0.5,7.6C7,27.4,7.9,29.5,9.5,30.5z"/>
</g>
<path class="st3" d="M24,29.6c-2,4-9,3-14,0c-5-3-3-21,0-23.5c1.6-1.4,2.6-1.2,3.6-0.9c1.5,0.6,2.9,2.2,2.9,3.9V11
	c0,2.2,2.3,3.6,4.5,3.5c1.2,0,2.3,0.2,3,1.1C26,18.1,26,25.6,24,29.6z"/>
</svg>
