<?xml version="1.0" encoding="utf-8"?>
<!-- Generator: Adobe Illustrator 27.8.1, SVG Export Plug-In . SVG Version: 6.00 Build 0)  -->
<svg version="1.1" id="레이어_1" xmlns="http://www.w3.org/2000/svg" xmlns:xlink="http://www.w3.org/1999/xlink" x="0px"
	 y="0px" viewBox="0 0 33 42" style="enable-background:new 0 0 33 42;" xml:space="preserve">
<style type="text/css">
	.st0{display:none;fill:#ECA797;}
	.st1{display:none;fill:none;stroke:#FFFFFF;stroke-width:2;}
	.st2{fill:none;stroke:#A06868;}
</style>
<g>
	<path class="st0" d="M8.5,7.6c2-4,9-3,14,0c5,3,3,21,0,23.5c-1.6,1.4-2.6,1.2-3.6,0.9c-1.5-0.6-2.9-2.2-2.9-3.9v-1.8
		c0-2.2-2.3-3.6-4.5-3.5c-1.2,0-2.3-0.2-3-1.1C6.5,19.1,6.5,11.6,8.5,7.6z"/>
	<path class="st1" d="M23,6.8c-2.6-1.6-5.8-2.6-8.6-2.8c-2.8-0.1-5.6,0.6-6.8,3.2C6.5,9.4,6,12.4,6,15.2c0,1.4,0.1,2.8,0.4,4
		c0.3,1.2,0.7,2.3,1.3,3.1c1,1.2,2.5,1.5,3.8,1.5c0.9,0,1.8,0.3,2.5,0.7c0.7,0.5,1,1.1,1,1.8v1.8c0,2.1,1.6,4.1,3.5,4.8
		c0.6,0.2,1.3,0.4,2.1,0.3c0.8-0.1,1.6-0.6,2.5-1.3c0.6-0.5,1-1.2,1.3-2c0.4-0.8,0.7-1.8,1-2.9c0.6-2.2,0.9-4.8,1.1-7.5
		c0.1-2.6,0-5.4-0.5-7.6C25.5,9.8,24.6,7.8,23,6.8z"/>
	<path class="st2" d="M8.5,7.6c2-4,9-3,14,0s3,21,0,23.5c-1.6,1.4-2.6,1.2-3.6,0.9c-1.5-0.6-2.9-2.2-2.9-3.9v-1.8
		c0-2.2-2.3-3.6-4.5-3.5c-1.2,0-2.3-0.2-3-1.1C6.5,19.1,6.5,11.6,8.5,7.6z"/>
</g>
</svg>
