<svg width="33" height="42" viewBox="0 0 33 42" fill="none" xmlns="http://www.w3.org/2000/svg">
<g filter="url(#filter0_d_8_15)">
<path d="M8.5 7.63826C10.5 3.63834 17.5 4.63817 22.5 7.63826C27.5 10.6384 25.5 28.6383 22.5 31.1383C20.8779 32.49 19.8518 32.38 18.8501 31.9938C17.3042 31.3977 16 29.7951 16 28.1383L16 26.2972C16 24.1154 13.6825 22.6941 11.5013 22.7473C10.3293 22.7759 9.20018 22.5135 8.5 21.6383C6.5 19.1383 6.50001 11.6382 8.5 7.63826Z" fill="#ECA797"/>
<path d="M23.0145 6.78078C20.3987 5.21124 17.2401 4.14854 14.4226 4.01439C11.6402 3.88192 8.8691 4.66403 7.60557 7.19104C6.51246 9.37724 6 12.4215 6 15.2008C6 16.6018 6.12991 17.9739 6.39913 19.177C6.66423 20.3616 7.08308 21.4679 7.71914 22.263C8.70891 23.5001 10.2325 23.7785 11.5257 23.747C12.4058 23.7255 13.3128 24.0059 13.9793 24.492C14.6359 24.9709 15 25.5961 15 26.2972L15 28.1383C15 30.2852 16.6355 32.2117 18.4904 32.9268C19.071 33.1507 19.7692 33.3377 20.5999 33.2053C21.4197 33.0746 22.2439 32.6534 23.1402 31.9065C23.691 31.4474 24.1263 30.7259 24.4782 29.9444C24.8413 29.1381 25.163 28.1593 25.4378 27.0804C25.9878 24.9209 26.3711 22.2754 26.4988 19.6239C26.6264 16.9773 26.5019 14.2737 26.0083 12.0111C25.5281 9.81028 24.6405 7.75641 23.0145 6.78078Z" stroke="white" stroke-width="2"/>
</g>
<defs>
<filter id="filter0_d_8_15" x="0" y="0.000610352" width="32.5455" height="41.2488" filterUnits="userSpaceOnUse" color-interpolation-filters="sRGB">
<feFlood flood-opacity="0" result="BackgroundImageFix"/>
<feColorMatrix in="SourceAlpha" type="matrix" values="0 0 0 0 0 0 0 0 0 0 0 0 0 0 0 0 0 0 127 0" result="hardAlpha"/>
<feOffset dy="2"/>
<feGaussianBlur stdDeviation="2.5"/>
<feComposite in2="hardAlpha" operator="out"/>
<feColorMatrix type="matrix" values="0 0 0 0 0 0 0 0 0 0 0 0 0 0 0 0 0 0 0.1 0"/>
<feBlend mode="normal" in2="BackgroundImageFix" result="effect1_dropShadow_8_15"/>
<feBlend mode="normal" in="SourceGraphic" in2="effect1_dropShadow_8_15" result="shape"/>
</filter>
</defs>
</svg>
