<svg width="33" height="42" viewBox="0 0 33 42" fill="none" xmlns="http://www.w3.org/2000/svg">
<g filter="url(#filter0_d_8_14)">
<path d="M24.0455 29.6111C22.0455 33.6111 15.0455 32.6112 10.0455 29.6111C5.04553 26.611 7.04554 8.61112 10.0455 6.11112C11.6676 4.75941 12.6937 4.8694 13.6954 5.25561C15.2413 5.85167 16.5455 7.45427 16.5455 9.11112L16.5455 10.9522C16.5455 13.134 18.863 14.5553 21.0443 14.5021C22.2162 14.4735 23.3454 14.7359 24.0455 15.6111C26.0455 18.111 26.0455 25.6112 24.0455 29.6111Z" fill="#97CDEC"/>
<path d="M9.53103 30.4686C12.1468 32.0382 15.3054 33.1009 18.123 33.235C20.9053 33.3675 23.6764 32.5854 24.94 30.0583C26.0331 27.8721 26.5455 24.8279 26.5455 22.0486C26.5455 20.6476 26.4156 19.2755 26.1464 18.0724C25.8813 16.8878 25.4625 15.7815 24.8264 14.9864C23.8366 13.7492 22.3131 13.4709 21.0199 13.5024C20.1397 13.5239 19.2327 13.2435 18.5662 12.7574C17.9097 12.2785 17.5455 11.6533 17.5455 10.9522L17.5455 9.11112C17.5455 6.96414 15.91 5.03774 14.0552 4.32256C13.4746 4.09871 12.7763 3.91168 11.9457 4.04412C11.1259 4.17482 10.3016 4.59599 9.40535 5.3429C8.85449 5.80195 8.41926 6.52349 8.06732 7.30499C7.70422 8.11128 7.38249 9.09012 7.10772 10.169C6.55774 12.3285 6.17447 14.974 6.04669 17.6255C5.91914 20.272 6.0436 22.9757 6.53726 25.2383C7.01744 27.4391 7.90503 29.493 9.53103 30.4686Z" stroke="white" stroke-width="2"/>
</g>
<defs>
<filter id="filter0_d_8_14" x="0" y="0" width="32.5455" height="41.2488" filterUnits="userSpaceOnUse" color-interpolation-filters="sRGB">
<feFlood flood-opacity="0" result="BackgroundImageFix"/>
<feColorMatrix in="SourceAlpha" type="matrix" values="0 0 0 0 0 0 0 0 0 0 0 0 0 0 0 0 0 0 127 0" result="hardAlpha"/>
<feOffset dy="2"/>
<feGaussianBlur stdDeviation="2.5"/>
<feComposite in2="hardAlpha" operator="out"/>
<feColorMatrix type="matrix" values="0 0 0 0 0 0 0 0 0 0 0 0 0 0 0 0 0 0 0.1 0"/>
<feBlend mode="normal" in2="BackgroundImageFix" result="effect1_dropShadow_8_14"/>
<feBlend mode="normal" in="SourceGraphic" in2="effect1_dropShadow_8_14" result="shape"/>
</filter>
</defs>
</svg>
